<?xml version="1.0" encoding="UTF-8"?>
<svg version="1.1" xmlns="http://www.w3.org/2000/svg" width="64" height="64">
<path d="M0 0 C8.74359547 6.04854678 13.29936084 13.87260316 16 24 C16.495 29.445 16.495 29.445 17 35 C-3.79 35 -24.58 35 -46 35 C-43.9390944 20.57366081 -41.58594386 9.75666949 -30 0.625 C-20.45405387 -6.00312863 -9.99681543 -5.54651462 0 0 Z " fill="#FC8D33" transform="translate(47,15)"/>
<path d="M0 0 C1.69206825 -0.00956978 1.69206825 -0.00956978 3.4183197 -0.01933289 C5.24647972 -0.02100212 5.24647972 -0.02100212 7.11157227 -0.02270508 C8.36301529 -0.02603348 9.61445831 -0.02936188 10.90382385 -0.03279114 C13.55261792 -0.03785784 16.2013094 -0.04063165 18.85009766 -0.04003906 C22.24073746 -0.03993743 25.6311679 -0.0535932 29.02175808 -0.07081127 C32.26002165 -0.08461636 35.49828325 -0.08402027 38.73657227 -0.08520508 C39.95332138 -0.09239059 41.1700705 -0.09957611 42.4236908 -0.10697937 C44.12048729 -0.10236443 44.12048729 -0.10236443 45.8515625 -0.09765625 C46.84623032 -0.09908127 47.84089813 -0.10050629 48.8657074 -0.10197449 C51.55231548 0.15108835 53.19240831 0.77161469 55.49047852 2.14526367 C53.73980655 3.89593563 51.29486481 3.28193196 48.91674805 3.29052734 C47.72526154 3.2969072 46.53377502 3.30328705 45.30618286 3.30986023 C43.3594014 3.31152946 43.3594014 3.31152946 41.37329102 3.31323242 C40.03669193 3.31644377 38.7000932 3.31980775 37.36349487 3.32331848 C34.55734441 3.32931645 31.75122478 3.33115775 28.94506836 3.33056641 C25.34801277 3.33046486 21.75115493 3.34410576 18.15414619 3.36133862 C15.3917856 3.37245532 12.62947281 3.3744857 9.86709213 3.37395668 C7.89560232 3.37571255 5.92412743 3.38655765 3.95266724 3.39750671 C2.15598099 3.39289177 2.15598099 3.39289177 0.32299805 3.38818359 C-0.73321747 3.38960861 -1.78943298 3.39103363 -2.87765503 3.39250183 C-5.50952148 3.14526367 -5.50952148 3.14526367 -8.50952148 1.14526367 C-5.40899464 0.11175472 -3.25086289 0.01246803 0 0 Z " fill="#CF8041" transform="translate(8.509521484375,51.854736328125)"/>
<path d="M0 0 C0.99 0.66 1.98 1.32 3 2 C3 2.66 3 3.32 3 4 C3.59425781 4.24105469 4.18851563 4.48210938 4.80078125 4.73046875 C7.43601362 6.25169525 8.52916709 7.77597536 10.1875 10.3125 C10.69667969 11.07175781 11.20585938 11.83101562 11.73046875 12.61328125 C13.05469041 15.10281797 13.59209351 17.22328716 14 20 C10.68020846 16.85965665 8.29742763 13.92477221 6 10 C2.43948877 5.01528427 -0.97643886 1.65297724 -7 0 C-15.50431659 -1.06743224 -15.50431659 -1.06743224 -23.296875 1.52734375 C-23.85890625 2.01332031 -24.4209375 2.49929687 -25 3 C-25.66 3 -26.32 3 -27 3 C-27 3.66 -27 4.32 -27 5 C-28.32 5.33 -29.64 5.66 -31 6 C-31.33 7.32 -31.66 8.64 -32 10 C-32.66 10 -33.32 10 -34 10 C-34.2475 10.86625 -34.495 11.7325 -34.75 12.625 C-36.06778613 16.18302254 -37.80186822 18.9226155 -40 22 C-40.93092208 19.48137034 -41.14010478 18.35761906 -40.14453125 15.81640625 C-35.32938126 7.66877709 -29.7341405 -0.65533425 -20.14453125 -3.5625 C-12.5295936 -5.11600276 -6.53462281 -4.1350731 0 0 Z " fill="#FEECD1" transform="translate(46,17)"/>
<path d="M0 0 C6.88737432 3.82130916 11.97228819 9.22814133 15.38671875 16.32421875 C16.19921875 19.32421875 16.19921875 19.32421875 16.38671875 21.32421875 C15.72671875 21.32421875 15.06671875 21.32421875 14.38671875 21.32421875 C14.144375 20.80472656 13.90203125 20.28523438 13.65234375 19.75 C10.31984457 12.41133338 10.31984457 12.41133338 4.38671875 7.32421875 C4.38671875 6.66421875 4.38671875 6.00421875 4.38671875 5.32421875 C3.06413403 4.6364747 1.72685372 3.97710502 0.38671875 3.32421875 C-0.64453125 2.78796875 -1.67578125 2.25171875 -2.73828125 1.69921875 C-7.78765058 -0.42455032 -13.43015498 -0.67429044 -18.66796875 0.96875 C-20.34190889 1.69795568 -21.98016973 2.50766299 -23.61328125 3.32421875 C-24.39703125 3.48921875 -25.18078125 3.65421875 -25.98828125 3.82421875 C-26.79265625 4.07171875 -26.79265625 4.07171875 -27.61328125 4.32421875 C-27.94328125 5.31421875 -28.27328125 6.30421875 -28.61328125 7.32421875 C-29.27328125 7.32421875 -29.93328125 7.32421875 -30.61328125 7.32421875 C-30.88140625 7.88109375 -31.14953125 8.43796875 -31.42578125 9.01171875 C-33.1760525 12.42014172 -35.15756972 15.64909055 -37.30078125 18.82421875 C-38.75003942 21.58471051 -38.87643779 23.2540591 -38.61328125 26.32421875 C-39.60328125 26.32421875 -40.59328125 26.32421875 -41.61328125 26.32421875 C-40.78038642 16.32948083 -35.95232981 9.06605721 -28.61328125 2.32421875 C-19.39914372 -3.65429473 -9.9865354 -4.46807314 0 0 Z " fill="#D99B5D" transform="translate(44.61328125,13.67578125)"/>
<path d="M0 0 C2 3 2 3 3 14 C-17.79 14 -38.58 14 -60 14 C-60 13.67 -60 13.34 -60 13 C-40.53 13 -21.06 13 -1 13 C0.05302396 6.9674907 0.05302396 6.9674907 -1 2 C-0.67 1.34 -0.34 0.68 0 0 Z " fill="#C57C48" transform="translate(61,36)"/>
<path d="M0 0 C1.74216797 0.04060547 1.74216797 0.04060547 3.51953125 0.08203125 C4.39996094 0.11683594 5.28039062 0.15164063 6.1875 0.1875 C6.1875 0.5175 6.1875 0.8475 6.1875 1.1875 C5.36765625 1.29707031 4.5478125 1.40664062 3.703125 1.51953125 C2.08664063 1.75736328 2.08664063 1.75736328 0.4375 2 C-0.62984375 2.15082031 -1.6971875 2.30164063 -2.796875 2.45703125 C-5.89364403 3.20715535 -7.39111852 4.19694991 -9.8125 6.1875 C-10.4725 6.1875 -11.1325 6.1875 -11.8125 6.1875 C-11.8125 6.8475 -11.8125 7.5075 -11.8125 8.1875 C-13.1325 8.5175 -14.4525 8.8475 -15.8125 9.1875 C-16.1425 10.5075 -16.4725 11.8275 -16.8125 13.1875 C-17.4725 13.1875 -18.1325 13.1875 -18.8125 13.1875 C-19.06 14.05375 -19.3075 14.92 -19.5625 15.8125 C-20.88028613 19.37052254 -22.61436822 22.1101155 -24.8125 25.1875 C-25.74342208 22.66887034 -25.95260478 21.54511906 -24.95703125 19.00390625 C-19.12913474 9.14262682 -12.48090044 -0.3782091 0 0 Z " fill="#FFF7E8" transform="translate(30.8125,13.8125)"/>
<path d="M0 0 C5.05704833 0.86100607 7.13206463 3.98182317 10 8 C14 14.82208589 14 14.82208589 14 18 C13.34 18 12.68 18 12 18 C11.75765625 17.48050781 11.5153125 16.96101563 11.265625 16.42578125 C7.93312582 9.08711463 7.93312582 9.08711463 2 4 C2 3.34 2 2.68 2 2 C1.34 2 0.68 2 0 2 C0 1.34 0 0.68 0 0 Z " fill="#D99258" transform="translate(47,17)"/>
<path d="M0 0 C13.6332574 -0.738041 13.6332574 -0.738041 20 4 C19.34 4.66 18.68 5.32 18 6 C16.88625 5.360625 15.7725 4.72125 14.625 4.0625 C9.85354302 1.64256752 5.28755567 1.2167031 0 1 C0 0.67 0 0.34 0 0 Z " fill="#EEA756" transform="translate(28,12)"/>
<path d="M0 0 C1.65 0.33 3.3 0.66 5 1 C5 2.32 5 3.64 5 5 C3.125 5.625 3.125 5.625 1 6 C0.34 5.34 -0.32 4.68 -1 4 C-0.625 1.875 -0.625 1.875 0 0 Z " fill="#C27D47" transform="translate(31,4)"/>
<path d="M0 0 C0.66 0.99 1.32 1.98 2 3 C1.21516341 4.48280196 0.42190666 5.9611498 -0.375 7.4375 C-0.81585937 8.26121094 -1.25671875 9.08492187 -1.7109375 9.93359375 C-3 12 -3 12 -5 13 C-4.39254603 8.14036821 -2.27241033 4.2594482 0 0 Z " fill="#FFEDD8" transform="translate(10,26)"/>
<path d="M0 0 C3.40312738 1.05875074 6.01353231 2.00902154 9 4 C8.67 4.99 8.34 5.98 8 7 C6.66144944 6.21718695 5.32926356 5.42348123 4 4.625 C3.2575 4.18414063 2.515 3.74328125 1.75 3.2890625 C1.1725 2.86367188 0.595 2.43828125 0 2 C0 1.34 0 0.68 0 0 Z " fill="#FFF6E8" transform="translate(40,15)"/>
<path d="M0 0 C2.91227269 3.28804981 4.49701212 5.59885603 5 10 C0.07692308 5.69230769 0.07692308 5.69230769 -0.3125 2.1875 C-0.209375 1.465625 -0.10625 0.74375 0 0 Z " fill="#EFE2D3" transform="translate(55,27)"/>
</svg>
